<svg width="72" height="72" viewBox="0 0 72 72" fill="none" xmlns="http://www.w3.org/2000/svg">
<g clip-path="url(#clip0_302815_4220)" filter="url(#filter0_d_302815_4220)">
<rect width="64" height="64" transform="translate(4)" fill="white"/>
<path d="M66.5933 30.6025C66.5899 13.6978 52.8828 -0.00341734 35.9775 6.39362e-07C19.0728 0.00341861 5.37158 13.7109 5.375 30.6157C5.37793 43.9316 13.9888 55.7178 26.6738 59.7681C26.7949 59.8062 26.9209 59.8257 27.0474 59.8252C27.2886 59.8247 27.5249 59.7603 27.7324 59.6377C28.0024 59.478 28.2041 59.2241 28.2988 58.9248L36.0288 34.4248C38.1421 34.4141 39.8462 32.6919 39.835 30.5791C39.8242 28.4658 38.1025 26.7617 35.9893 26.7725C35.4209 26.7749 34.8599 26.9058 34.3491 27.1553L24.1372 16.9419C23.6304 16.4526 22.8232 16.4668 22.334 16.9731C21.8564 17.4678 21.8564 18.251 22.334 18.7456L32.5405 28.9639C31.7573 30.5625 32.2051 32.4922 33.6133 33.582L26.248 56.9277C11.6924 51.5659 4.23926 35.4199 9.60108 20.8643C14.9629 6.30859 31.1089 -1.14453 45.6646 4.21729C60.2202 9.5791 67.6733 25.7256 62.3115 40.2808C59.6919 47.3921 54.3096 53.1431 47.3872 56.2275L46.5913 52.479C46.4458 51.79 45.7686 51.3496 45.0796 51.4956C44.8623 51.542 44.6606 51.6441 44.4946 51.792L36.8208 58.6431C36.2944 59.1113 36.2476 59.9175 36.7163 60.4439C36.8687 60.6148 37.064 60.7417 37.2827 60.8115L47.0801 63.9385C47.7505 64.1538 48.4688 63.7852 48.6841 63.1143C48.7524 62.9024 48.7637 62.6768 48.7178 62.459L47.9356 58.7808C59.2642 54.0049 66.6196 42.8965 66.5933 30.6025ZM35.9844 29.3272C36.6885 29.3272 37.2598 29.8984 37.2598 30.6025C37.2598 31.3071 36.6885 31.8779 35.9844 31.8779C35.2798 31.8779 34.709 31.3071 34.709 30.6025C34.709 29.8984 35.2798 29.3272 35.9844 29.3272ZM40.1851 59.0552L44.5532 55.1587L45.7588 60.8394L40.1851 59.0552Z" fill="#2E2F42"/>
<path d="M34.709 6.37012V8.9209C34.709 9.62549 35.2798 10.1963 35.9844 10.1963C36.6885 10.1963 37.2598 9.62549 37.2598 8.9209V6.37012C37.2598 5.66602 36.6885 5.09473 35.9844 5.09473C35.2798 5.09473 34.709 5.66602 34.709 6.37012Z" fill="#4D5AE5"/>
<path d="M11.752 29.3271C11.0474 29.3271 10.4766 29.8984 10.4766 30.6025C10.4766 31.3071 11.0474 31.8779 11.752 31.8779H14.3027C15.0073 31.8779 15.5781 31.3071 15.5781 30.6025C15.5781 29.8984 15.0073 29.3271 14.3027 29.3271H11.752Z" fill="#4D5AE5"/>
<path d="M60.2162 31.8779C60.9208 31.8779 61.4916 31.3071 61.4916 30.6025C61.4916 29.8984 60.9208 29.3271 60.2162 29.3271H57.6655C56.9614 29.3271 56.3901 29.8984 56.3901 30.6025C56.3901 31.3071 56.9614 31.8779 57.6655 31.8779H60.2162Z" fill="#4D5AE5"/>
</g>
<defs>
<filter id="filter0_d_302815_4220" x="0" y="0" width="72" height="72" filterUnits="userSpaceOnUse" color-interpolation-filters="sRGB">
<feFlood flood-opacity="0" result="BackgroundImageFix"/>
<feColorMatrix in="SourceAlpha" type="matrix" values="0 0 0 0 0 0 0 0 0 0 0 0 0 0 0 0 0 0 127 0" result="hardAlpha"/>
<feOffset dy="4"/>
<feGaussianBlur stdDeviation="2"/>
<feComposite in2="hardAlpha" operator="out"/>
<feColorMatrix type="matrix" values="0 0 0 0 0 0 0 0 0 0 0 0 0 0 0 0 0 0 0.25 0"/>
<feBlend mode="normal" in2="BackgroundImageFix" result="effect1_dropShadow_302815_4220"/>
<feBlend mode="normal" in="SourceGraphic" in2="effect1_dropShadow_302815_4220" result="shape"/>
</filter>
<clipPath id="clip0_302815_4220">
<rect width="64" height="64" fill="white" transform="translate(4)"/>
</clipPath>
</defs>
</svg>
